<svg xmlns="http://www.w3.org/2000/svg" width="200" height="200" viewBox="0 0 128 128">
  <defs>
    <linearGradient id="logo-g" x1="0%" y1="0%" x2="100%" y2="100%">
      <stop offset="0%" stop-color="#8B5CF6"/>
      <stop offset="100%" stop-color="#4F46E5"/>
    </linearGradient>
  </defs>
  <rect width="128" height="128" rx="28" fill="url(#logo-g)"/>
  <rect x="18" y="18" width="8" height="92" rx="4" fill="rgba(255,255,255,0.2)"/>
  <rect x="20" y="26" width="4" height="6" rx="2" fill="rgba(255,255,255,0.5)"/>
  <rect x="20" y="40" width="4" height="6" rx="2" fill="rgba(255,255,255,0.5)"/>
  <rect x="20" y="54" width="4" height="6" rx="2" fill="rgba(255,255,255,0.5)"/>
  <rect x="20" y="68" width="4" height="6" rx="2" fill="rgba(255,255,255,0.5)"/>
  <rect x="20" y="82" width="4" height="6" rx="2" fill="rgba(255,255,255,0.5)"/>
  <rect x="20" y="96" width="4" height="6" rx="2" fill="rgba(255,255,255,0.5)"/>
  <rect x="102" y="18" width="8" height="92" rx="4" fill="rgba(255,255,255,0.2)"/>
  <rect x="104" y="26" width="4" height="6" rx="2" fill="rgba(255,255,255,0.5)"/>
  <rect x="104" y="40" width="4" height="6" rx="2" fill="rgba(255,255,255,0.5)"/>
  <rect x="104" y="54" width="4" height="6" rx="2" fill="rgba(255,255,255,0.5)"/>
  <rect x="104" y="68" width="4" height="6" rx="2" fill="rgba(255,255,255,0.5)"/>
  <rect x="104" y="82" width="4" height="6" rx="2" fill="rgba(255,255,255,0.5)"/>
  <rect x="104" y="96" width="4" height="6" rx="2" fill="rgba(255,255,255,0.5)"/>
  <polygon points="50,42 50,86 88,64" fill="white" opacity="0.95"/>
  <circle cx="90" cy="36" r="5" fill="#A78BFA"/>
  <line x1="90" y1="28" x2="90" y2="32" stroke="white" stroke-width="2" stroke-linecap="round"/>
  <line x1="90" y1="40" x2="90" y2="44" stroke="white" stroke-width="2" stroke-linecap="round"/>
  <line x1="82" y1="36" x2="86" y2="36" stroke="white" stroke-width="2" stroke-linecap="round"/>
  <line x1="94" y1="36" x2="98" y2="36" stroke="white" stroke-width="2" stroke-linecap="round"/>
</svg>
