<svg xmlns="http://www.w3.org/2000/svg" width="128" height="128" viewBox="0 0 128 128">
  <defs>
    <linearGradient id="g" x1="0%" y1="0%" x2="100%" y2="100%">
      <stop offset="0%" stop-color="#8B5CF6"/>
      <stop offset="100%" stop-color="#4F46E5"/>
    </linearGradient>
  </defs>
  <!-- Background -->
  <rect width="128" height="128" rx="28" fill="url(#g)"/>
  <!-- Film strip left -->
  <rect x="18" y="18" width="8" height="92" rx="4" fill="rgba(255,255,255,0.2)"/>
  <rect x="20" y="26" width="4" height="6" rx="2" fill="rgba(255,255,255,0.5)"/>
  <rect x="20" y="40" width="4" height="6" rx="2" fill="rgba(255,255,255,0.5)"/>
  <rect x="20" y="54" width="4" height="6" rx="2" fill="rgba(255,255,255,0.5)"/>
  <rect x="20" y="68" width="4" height="6" rx="2" fill="rgba(255,255,255,0.5)"/>
  <rect x="20" y="82" width="4" height="6" rx="2" fill="rgba(255,255,255,0.5)"/>
  <rect x="20" y="96" width="4" height="6" rx="2" fill="rgba(255,255,255,0.5)"/>
  <!-- Film strip right -->
  <rect x="102" y="18" width="8" height="92" rx="4" fill="rgba(255,255,255,0.2)"/>
  <rect x="104" y="26" width="4" height="6" rx="2" fill="rgba(255,255,255,0.5)"/>
  <rect x="104" y="40" width="4" height="6" rx="2" fill="rgba(255,255,255,0.5)"/>
  <rect x="104" y="54" width="4" height="6" rx="2" fill="rgba(255,255,255,0.5)"/>
  <rect x="104" y="68" width="4" height="6" rx="2" fill="rgba(255,255,255,0.5)"/>
  <rect x="104" y="82" width="4" height="6" rx="2" fill="rgba(255,255,255,0.5)"/>
  <rect x="104" y="96" width="4" height="6" rx="2" fill="rgba(255,255,255,0.5)"/>
  <!-- Play button -->
  <polygon points="50,42 50,86 88,64" fill="white" opacity="0.95"/>
  <!-- AI spark -->
  <circle cx="90" cy="36" r="5" fill="#A78BFA"/>
  <line x1="90" y1="28" x2="90" y2="32" stroke="white" stroke-width="2" stroke-linecap="round"/>
  <line x1="90" y1="40" x2="90" y2="44" stroke="white" stroke-width="2" stroke-linecap="round"/>
  <line x1="82" y1="36" x2="86" y2="36" stroke="white" stroke-width="2" stroke-linecap="round"/>
  <line x1="94" y1="36" x2="98" y2="36" stroke="white" stroke-width="2" stroke-linecap="round"/>
  <line x1="84.4" y1="30.4" x2="87.2" y2="33.2" stroke="white" stroke-width="1.5" stroke-linecap="round"/>
  <line x1="92.8" y1="38.8" x2="95.6" y2="41.6" stroke="white" stroke-width="1.5" stroke-linecap="round"/>
  <line x1="95.6" y1="30.4" x2="92.8" y2="33.2" stroke="white" stroke-width="1.5" stroke-linecap="round"/>
  <line x1="87.2" y1="38.8" x2="84.4" y2="41.6" stroke="white" stroke-width="1.5" stroke-linecap="round"/>
</svg>
