<svg width="256" height="256" viewBox="0 0 256 256" fill="none" xmlns="http://www.w3.org/2000/svg">
<path fill-rule="evenodd" clip-rule="evenodd" d="M171.778 46.7642C163.776 42.2282 154.662 40.027 145.473 40.4105C136.488 40.7854 127.782 43.6165 120.299 48.5903C117.437 47.725 114.402 47.2599 111.258 47.2599H104.307C100.74 47.2599 97.8473 50.1522 97.8473 53.7201C97.8473 57.288 100.74 60.1804 104.307 60.1804H111.258C121.346 60.1804 129.523 68.3578 129.523 78.4445C129.523 88.5319 121.346 96.709 111.258 96.709H55.9984C52.4305 96.709 49.5381 99.6013 49.5381 103.169C49.5381 106.737 52.4305 109.629 55.9984 109.629H111.258C112.337 109.629 113.53 109.85 115.298 110.248C123.443 112.084 129.523 119.373 129.523 128.066C129.523 138.153 121.346 146.33 111.258 146.33H55.9984C52.4305 146.33 49.5381 149.223 49.5381 152.79C49.5381 156.358 52.4305 159.251 55.9984 159.251H111.258C121.346 159.251 129.523 167.428 129.523 177.515C129.523 187.602 121.346 195.78 111.258 195.78H104.307C100.74 195.78 97.8473 198.672 97.8473 202.24C97.8473 205.808 100.74 208.7 104.307 208.7H111.258C116.206 208.7 120.884 207.548 125.04 205.497C131.864 214.458 143.95 218.084 154.79 213.899C162.231 211.026 167.633 205.032 169.976 197.926C175.026 200.136 180.773 200.721 186.385 199.355C196.988 196.776 204.813 187.794 205.915 176.938C206.542 170.757 204.911 164.695 201.525 159.761C208.498 154.683 212.691 146.252 212.061 137.16C211.576 130.166 208.329 123.984 203.431 119.651C206.306 117.11 208.633 113.909 210.163 110.215C214.149 100.593 211.945 89.517 204.581 82.1529L204.558 82.1299C203.107 80.694 201.5 79.4442 199.774 78.3991C199.605 78.2791 199.43 78.1658 199.247 78.0604C197.829 77.2419 196.342 76.5634 194.807 76.0314C193.251 70.5849 190.761 65.4373 187.441 60.8219C183.295 55.0609 177.951 50.265 171.778 46.7642ZM180.828 75.2147C179.791 72.8059 178.493 70.5091 176.953 68.3681C173.896 64.121 169.958 60.5854 165.406 58.0043C159.506 54.6602 152.787 53.037 146.012 53.3198C141.567 53.5052 137.215 54.5057 133.166 56.2514C138.173 61.194 141.516 67.8186 142.278 75.2081C143.149 75.0172 144.032 74.8706 144.923 74.7707C149.739 74.2315 154.609 75.0609 158.973 77.165C162.116 78.6796 164.854 80.7819 167.082 83.3028C168.916 81.229 171.08 79.4557 173.497 78.0604C175.79 76.7366 178.263 75.78 180.828 75.2147ZM187.739 87.6043C187.286 87.5559 186.83 87.531 186.372 87.531C184.12 87.531 181.907 88.1241 179.957 89.2498C178.007 90.3761 176.387 91.9955 175.261 93.9463C174.135 95.8966 173.542 98.1091 173.542 100.361C173.542 103.929 170.65 106.821 167.082 106.821C163.514 106.821 160.622 103.929 160.622 100.361C160.622 95.4343 157.801 90.9432 153.363 88.8039C151.188 87.7558 148.761 87.342 146.362 87.611C144.145 87.8594 142.034 88.6821 140.235 89.9926C138.126 95.2804 134.612 99.8558 130.153 103.256C136.006 107.719 140.233 114.206 141.788 121.675C143.62 121.177 145.507 120.882 147.417 120.797C151.515 120.618 155.596 121.42 159.321 123.136C163.047 124.852 166.308 127.434 168.834 130.666C171.344 133.878 173.056 137.639 173.829 141.641C175.047 147.301 179.898 151.416 185.625 151.745C185.774 151.754 185.922 151.768 186.07 151.787C186.89 151.807 187.711 151.748 188.521 151.611C188.667 151.569 188.816 151.533 188.968 151.502C195.255 150.203 199.614 144.457 199.172 138.053C198.705 131.328 193.114 126.111 186.372 126.111C182.805 126.111 179.912 123.219 179.912 119.651C179.912 116.083 182.805 113.191 186.372 113.191C191.562 113.191 196.24 110.065 198.226 105.271C200.209 100.482 199.116 94.9696 195.455 91.3C193.546 89.4146 191.094 88.175 188.443 87.7558C188.204 87.7182 187.968 87.6673 187.739 87.6043ZM188.662 164.61C187.403 164.721 186.136 164.741 184.871 164.667C184.666 164.655 184.462 164.633 184.26 164.601C173 163.68 163.541 155.474 161.175 144.255L161.15 144.127C160.768 142.12 159.913 140.232 158.654 138.623C157.395 137.012 155.771 135.726 153.915 134.871C152.059 134.016 150.025 133.617 147.984 133.706C146.032 133.792 144.126 134.322 142.412 135.255C142.336 135.303 142.259 135.349 142.181 135.393C141.938 135.531 141.702 135.677 141.469 135.83C139.716 142.672 135.7 148.607 130.266 152.79C137.671 158.492 142.444 167.447 142.444 177.515C142.444 185.122 139.72 192.091 135.196 197.504C138.574 202.082 144.673 203.956 150.136 201.846C156.252 199.484 159.604 192.89 157.907 186.557C157.085 183.49 158.613 180.281 161.512 178.986C164.41 177.691 167.82 178.693 169.556 181.351C172.529 185.903 178.048 188.087 183.331 186.801C188.613 185.516 192.512 181.041 193.061 175.633C193.489 171.418 191.808 167.314 188.662 164.61Z" fill="#18181B"/>
<path d="M80.2736 71.7705C76.7058 71.7705 73.8135 74.6628 73.8135 78.2307C73.8135 81.7985 76.7058 84.6908 80.2736 84.6908H108.774C112.342 84.6908 115.235 81.7985 115.235 78.2307C115.235 74.6628 112.342 71.7705 108.774 71.7705H80.2736Z" fill="#18181B"/>
<path d="M41.1243 121.648C37.5564 121.648 34.6641 124.54 34.6641 128.108C34.6641 131.676 37.5564 134.568 41.1243 134.568H108.852C112.42 134.568 115.312 131.676 115.312 128.108C115.312 124.54 112.42 121.648 108.852 121.648H41.1243Z" fill="#18181B"/>
<path d="M80.2736 171.441C76.7058 171.441 73.8135 174.333 73.8135 177.901C73.8135 181.47 76.7058 184.362 80.2736 184.362H108.774C112.342 184.362 115.235 181.47 115.235 177.901C115.235 174.333 112.342 171.441 108.774 171.441H80.2736Z" fill="#18181B"/>
</svg>
