<svg width="256" height="256" viewBox="0 0 256 256" fill="none" xmlns="http://www.w3.org/2000/svg">
<path d="M158.099 43.3514C160.411 42.2416 163.035 41.8716 165.629 42.0419C167.464 42.1587 169.286 42.5475 170.97 43.1268C176.631 45.0789 180.726 50.9647 181.611 56.7626L181.646 168.383C182.186 177.534 195.559 178.376 197.092 169.22C198.611 147.158 195.466 123.188 197.19 101.354C197.696 94.9529 202.179 88.7704 208.401 86.8329C213.171 85.3433 218.414 85.679 222.717 88.3319C226.061 90.396 229.094 93.8571 230.263 97.6493C231.592 101.958 230.716 107.395 230.716 111.859V143.195L230.701 143.19V154.401C230.701 157.609 231.616 162.025 228.009 163.86C223.92 165.944 221.709 161.761 221.451 158.188C220.293 142.119 221.768 125.183 221.451 109.157C221.349 103.802 222.917 96.4085 215.78 94.9286C209.948 93.7164 206.448 97.942 205.942 103.321C203.951 124.565 207.903 149.081 205.956 170.325C204.203 189.422 174.299 189.928 172.405 169.356L172.43 58.1698C170.853 48.1513 157.417 49.0713 156.867 59.1239C156.862 64.5223 156.838 69.9257 156.819 75.3241C156.784 84.5296 156.75 93.7309 156.711 102.936C156.672 113.539 156.624 124.146 156.58 134.749C156.536 144.349 156.497 153.954 156.453 163.554C156.424 170.466 156.185 177.422 156.404 184.33C156.404 192.737 157.948 204.562 150.66 210.759C142.497 216.849 129.845 214.794 125.235 205.35C122.825 200.414 122.703 185.694 123.37 180.008C123.867 175.792 129.333 174.224 131.572 177.656C133.627 180.801 132.79 186.127 132.644 189.646C132.439 194.573 131.734 202.166 137.814 204.912C144.244 206.358 148.28 201.699 148.178 195.57L148.163 56.2323C148.908 50.4734 152.987 45.805 158.099 43.3514ZM116.577 41.91C126.163 43.2585 131.727 49.0614 132.55 58.7196V159.576C132.657 165.423 124.113 166.172 123.359 160.623V160.618L123.267 57.3124C120.623 47.9707 108.165 49.5825 107.819 59.1239C107.815 74.4679 107.811 89.8121 107.811 105.156C107.806 127.953 107.796 150.746 107.796 173.543C107.791 181.487 108.326 188.969 101.351 194.309C95.6211 198.696 87.6859 198.939 81.6398 195.035C73.5004 189.782 73.7192 180.445 73.8166 171.746C74.0648 150.263 75.3058 128.23 74.342 106.699C74.2154 103.822 74.1718 99.3382 72.1613 97.2303C67.9894 92.8544 61.077 94.7189 59.0129 100.151L58.7453 138.234C56.1603 154.761 33.0172 157.936 26.3771 142.509C24.9508 139.193 24.707 126.527 25.3009 122.764C26.0507 118.017 33.294 118.349 33.9855 122.764C34.9153 128.722 31.7081 137.694 37.175 141.91C41.5465 145.283 48.7019 142.586 49.5246 137.27C51.4766 124.647 45.153 99.4939 54.6359 90.4344C65.6621 79.8951 83.2121 88.1226 83.548 102.839L83.6691 182.811C85.6796 191.209 98.1033 190.026 98.6291 181.492L98.6632 57.2538C99.5932 49.2948 106.54 42.2948 114.635 41.91H116.577Z" fill="url(#paint0_linear_4213_1149)"/>
<defs>
<linearGradient id="paint0_linear_4213_1149" x1="25.0039" y1="128.075" x2="230.925" y2="134.647" gradientUnits="userSpaceOnUse">
<stop stop-color="#D3347B"/>
<stop offset="1" stop-color="#ED6D49"/>
</linearGradient>
</defs>
</svg>
